<?xml version="1.0" encoding="UTF-8" standalone="no"?>
<!DOCTYPE svg PUBLIC "-//W3C//DTD SVG 1.1//EN" "http://www.w3.org/Graphics/SVG/1.1/DTD/svg11.dtd">
<svg version="1.1" xmlns="http://www.w3.org/2000/svg" xmlns:xlink="http://www.w3.org/1999/xlink" preserveAspectRatio="xMidYMid meet" viewBox="0 0 50 50" width="50" height="50"><defs><path d="M25 3.85C13.02 3.85 3.31 13.56 3.31 25.54C3.31 35.12 9.52 43.25 18.14 46.12C19.23 46.32 19.62 45.65 19.62 45.07C19.62 44.56 19.61 43.19 19.59 41.38C13.56 42.69 12.29 38.47 12.29 38.47C11.3 35.97 9.88 35.3 9.88 35.3C7.91 33.96 10.03 33.98 10.03 33.98C12.21 34.14 13.35 36.22 13.35 36.22C15.29 39.53 18.43 38.58 19.66 38.02C19.86 36.62 20.42 35.66 21.04 35.12C16.22 34.57 11.16 32.71 11.16 24.4C11.16 22.03 12.01 20.1 13.39 18.58C13.17 18.03 12.43 15.83 13.61 12.84C13.61 12.84 15.43 12.26 19.57 15.06C21.3 14.58 23.16 14.34 25 14.33C26.84 14.34 28.7 14.58 30.43 15.06C34.57 12.26 36.39 12.84 36.39 12.84C37.57 15.83 36.83 18.03 36.61 18.58C38 20.1 38.84 22.03 38.84 24.4C38.84 32.73 33.76 34.57 28.93 35.1C29.71 35.77 30.4 37.1 30.4 39.12C30.4 42.02 30.38 44.36 30.38 45.07C30.38 45.65 30.77 46.33 31.87 46.11C40.48 43.24 46.69 35.12 46.69 25.54C46.69 13.56 36.98 3.85 25 3.85" id="e38tc31lo7"></path></defs><g><g><g><use xlink:href="#e38tc31lo7" opacity="1" fill="#1b1817" fill-opacity="1"></use><g><use xlink:href="#e38tc31lo7" opacity="1" fill-opacity="0" stroke="#000000" stroke-width="1" stroke-opacity="0"></use></g></g><path></path><path></path><path></path><path></path><path></path><path></path><path></path><path></path><path></path><path></path><path></path><path></path><path></path><path></path><path></path><path></path><path></path><path></path><path></path><path></path><path></path><path></path><path></path><path></path></g></g></svg>